<svg id="svg" version="1.1" xmlns="http://www.w3.org/2000/svg" xmlns:xlink="http://www.w3.org/1999/xlink" width="400" height="400" viewBox="0, 0, 400,400"><g id="svgg"><path id="path0" d="M325.300 68.412 C 324.805 68.611,324.400 69.048,324.400 69.382 C 324.400 69.911,322.662 70.003,310.900 70.095 L 297.400 70.200 297.272 71.100 C 297.147 71.981,297.033 72.000,291.935 72.000 C 287.100 72.000,286.710 72.056,286.520 72.783 C 286.347 73.444,285.905 73.584,283.658 73.683 C 281.248 73.789,280.988 73.884,280.872 74.700 C 280.755 75.527,280.535 75.600,278.172 75.600 C 275.892 75.600,275.600 75.688,275.600 76.377 C 275.600 77.005,275.274 77.178,273.900 77.277 C 272.487 77.379,272.178 77.552,272.072 78.300 C 271.962 79.079,271.705 79.200,270.172 79.200 C 268.667 79.200,268.400 79.320,268.400 80.000 C 268.400 80.587,268.133 80.800,267.400 80.800 C 266.600 80.800,266.400 81.000,266.400 81.800 C 266.400 82.719,266.253 82.800,264.600 82.800 C 263.088 82.800,262.800 82.924,262.800 83.572 C 262.800 84.068,262.478 84.390,261.900 84.472 C 261.322 84.554,260.954 84.922,260.872 85.500 C 260.790 86.078,260.468 86.400,259.972 86.400 C 259.475 86.400,259.200 86.676,259.200 87.175 C 259.200 87.788,258.822 88.008,257.400 88.221 C 255.998 88.431,255.600 88.658,255.600 89.245 C 255.600 89.731,255.317 90.000,254.808 90.000 C 254.296 90.000,253.926 90.354,253.764 91.000 C 253.607 91.626,253.230 92.000,252.757 92.000 C 252.267 92.000,252.000 92.282,252.000 92.800 C 252.000 93.387,251.733 93.600,251.000 93.600 C 250.200 93.600,250.000 93.800,250.000 94.600 C 250.000 95.333,249.787 95.600,249.200 95.600 C 248.750 95.600,248.400 95.867,248.400 96.210 C 248.400 96.545,247.950 96.991,247.400 97.200 C 246.788 97.433,246.400 97.894,246.400 98.390 C 246.400 98.945,246.137 99.200,245.563 99.200 C 245.075 99.200,244.642 99.519,244.526 99.963 C 244.416 100.383,243.983 100.816,243.563 100.926 C 243.119 101.042,242.800 101.475,242.800 101.963 C 242.800 102.546,242.546 102.800,241.963 102.800 C 241.475 102.800,241.042 103.119,240.926 103.563 C 240.816 103.983,240.383 104.416,239.963 104.526 C 239.519 104.642,239.200 105.075,239.200 105.563 C 239.200 106.137,238.945 106.400,238.390 106.400 C 237.894 106.400,237.433 106.788,237.200 107.400 C 236.991 107.950,236.545 108.400,236.210 108.400 C 235.867 108.400,235.600 108.750,235.600 109.200 C 235.600 109.787,235.333 110.000,234.600 110.000 C 233.800 110.000,233.600 110.200,233.600 111.000 C 233.600 111.733,233.387 112.000,232.800 112.000 C 232.267 112.000,232.000 112.267,232.000 112.800 C 232.000 113.387,231.733 113.600,231.000 113.600 C 230.200 113.600,230.000 113.800,230.000 114.600 C 230.000 115.333,229.787 115.600,229.200 115.600 C 228.750 115.600,228.400 115.867,228.400 116.210 C 228.400 116.545,227.950 116.991,227.400 117.200 C 226.788 117.433,226.400 117.894,226.400 118.390 C 226.400 118.933,226.137 119.200,225.600 119.200 C 225.069 119.200,224.800 119.467,224.800 119.992 C 224.800 120.504,224.446 120.874,223.800 121.036 C 223.174 121.193,222.800 121.570,222.800 122.043 C 222.800 122.519,222.519 122.800,222.043 122.800 C 221.570 122.800,221.193 123.174,221.036 123.800 C 220.874 124.446,220.504 124.800,219.992 124.800 C 219.467 124.800,219.200 125.069,219.200 125.600 C 219.200 126.131,218.933 126.400,218.408 126.400 C 217.896 126.400,217.526 126.754,217.364 127.400 C 217.207 128.026,216.830 128.400,216.357 128.400 C 215.867 128.400,215.600 128.682,215.600 129.200 C 215.600 129.731,215.333 130.000,214.808 130.000 C 214.296 130.000,213.926 130.354,213.764 131.000 C 213.607 131.626,213.230 132.000,212.757 132.000 C 212.281 132.000,212.000 132.281,212.000 132.757 C 212.000 133.230,211.626 133.607,211.000 133.764 C 210.067 133.998,209.488 135.600,210.336 135.600 C 210.521 135.600,210.895 136.846,211.167 138.369 C 211.464 140.033,211.890 141.226,212.234 141.358 C 212.549 141.479,213.029 142.078,213.301 142.689 C 213.572 143.300,214.111 144.149,214.497 144.575 C 214.884 145.002,215.200 145.581,215.200 145.861 C 215.200 146.142,215.560 146.565,216.000 146.800 C 216.440 147.035,216.800 147.464,216.800 147.752 C 216.800 148.040,217.250 148.799,217.800 149.438 C 218.349 150.077,218.799 150.915,218.800 151.300 C 218.800 151.685,218.978 152.000,219.195 152.000 C 219.412 152.000,220.036 152.675,220.581 153.500 C 221.127 154.325,222.115 155.720,222.778 156.600 C 223.441 157.480,224.162 158.605,224.382 159.100 C 224.601 159.595,224.945 160.000,225.147 160.000 C 225.348 160.000,225.618 160.419,225.747 160.931 C 225.876 161.443,226.435 162.353,226.990 162.952 C 227.546 163.551,228.000 164.259,228.000 164.524 C 228.000 164.790,228.360 165.232,228.800 165.507 C 229.240 165.782,229.600 166.266,229.600 166.583 C 229.600 166.900,230.050 167.644,230.600 168.238 C 231.150 168.831,231.600 169.554,231.600 169.844 C 231.600 170.134,231.948 170.558,232.373 170.786 C 232.798 171.013,233.267 171.581,233.415 172.047 C 233.563 172.513,234.212 173.639,234.857 174.547 C 235.501 175.456,236.465 176.860,236.998 177.666 C 237.531 178.473,238.155 179.249,238.384 179.390 C 238.613 179.531,238.800 179.997,238.800 180.424 C 238.800 180.851,238.975 181.200,239.189 181.200 C 239.403 181.200,240.300 182.325,241.182 183.700 C 242.065 185.075,243.150 186.620,243.593 187.134 C 244.037 187.648,244.400 188.233,244.400 188.434 C 244.400 188.635,244.715 189.132,245.100 189.537 C 245.485 189.943,246.160 190.879,246.600 191.618 C 248.005 193.978,248.192 194.249,248.885 194.943 C 249.957 196.014,246.717 200.800,244.920 200.800 C 244.634 200.800,244.400 201.074,244.400 201.409 C 244.400 201.743,243.965 202.215,243.434 202.457 C 242.903 202.699,242.379 203.236,242.271 203.649 C 242.163 204.062,241.800 204.400,241.464 204.400 C 241.129 204.400,240.740 204.760,240.600 205.200 C 240.460 205.640,240.071 206.000,239.736 206.000 C 239.400 206.000,239.033 206.354,238.919 206.787 C 238.806 207.219,238.382 207.679,237.977 207.807 C 237.572 207.936,237.130 208.392,236.994 208.820 C 236.857 209.249,236.587 209.600,236.393 209.600 C 236.198 209.600,234.762 210.860,233.200 212.400 C 231.638 213.940,230.190 215.200,229.980 215.200 C 229.771 215.200,229.600 215.470,229.600 215.800 C 229.600 216.130,229.441 216.400,229.247 216.400 C 229.053 216.400,228.153 217.141,227.247 218.047 C 226.341 218.953,225.600 219.853,225.600 220.047 C 225.600 220.241,225.330 220.400,225.000 220.400 C 224.670 220.400,224.400 220.562,224.400 220.759 C 224.400 220.957,223.659 221.812,222.753 222.659 C 221.847 223.507,218.116 227.125,214.460 230.700 C 210.805 234.275,207.671 237.200,207.494 237.200 C 207.318 237.200,204.387 239.990,200.981 243.400 C 197.575 246.810,194.602 249.600,194.374 249.600 C 194.146 249.600,193.694 250.275,193.369 251.100 C 193.045 251.925,192.604 252.913,192.390 253.295 C 191.647 254.618,191.903 257.200,192.777 257.200 C 193.405 257.200,193.578 257.526,193.677 258.900 C 193.779 260.313,193.952 260.622,194.700 260.728 C 195.479 260.838,195.600 261.095,195.600 262.628 C 195.600 264.116,195.725 264.400,196.377 264.400 C 197.005 264.400,197.178 264.726,197.277 266.100 C 197.379 267.513,197.552 267.822,198.300 267.928 C 199.076 268.038,199.200 268.296,199.200 269.801 C 199.200 271.195,199.361 271.597,200.000 271.800 C 200.597 271.989,200.800 272.405,200.800 273.436 C 200.800 274.521,201.014 274.915,201.800 275.273 C 202.620 275.646,202.800 276.012,202.800 277.302 C 202.800 278.538,202.971 278.920,203.600 279.084 C 204.082 279.210,204.402 279.633,204.405 280.147 C 204.416 281.794,204.887 282.800,205.647 282.800 C 206.262 282.800,206.400 283.100,206.400 284.437 C 206.400 285.726,206.567 286.118,207.182 286.279 C 207.749 286.428,208.036 286.966,208.227 288.242 C 208.428 289.582,208.665 290.000,209.222 290.000 C 209.797 290.000,209.980 290.364,210.077 291.700 C 210.179 293.113,210.352 293.422,211.100 293.528 C 211.863 293.636,212.000 293.901,212.000 295.265 C 212.000 296.523,212.170 296.919,212.778 297.078 C 213.205 297.190,213.610 297.668,213.678 298.141 C 213.754 298.679,214.137 299.048,214.700 299.128 C 215.479 299.238,215.600 299.495,215.600 301.028 C 215.600 302.515,215.725 302.800,216.376 302.800 C 216.984 302.800,217.179 303.125,217.276 304.300 C 217.367 305.403,217.638 305.905,218.300 306.195 C 218.795 306.412,219.200 306.907,219.200 307.295 C 219.200 307.733,219.503 308.000,220.000 308.000 C 220.587 308.000,220.800 308.267,220.800 309.000 C 220.800 309.794,221.002 310.000,221.777 310.000 C 222.640 310.000,222.768 310.198,222.877 311.700 C 222.979 313.113,223.152 313.422,223.900 313.528 C 224.478 313.610,224.800 313.932,224.800 314.428 C 224.800 314.924,225.076 315.200,225.572 315.200 C 226.068 315.200,226.390 315.522,226.472 316.100 C 226.578 316.846,226.887 317.021,228.275 317.122 C 229.649 317.222,229.973 317.401,230.075 318.122 C 230.154 318.679,230.529 319.047,231.100 319.128 C 231.678 319.210,232.000 319.532,232.000 320.028 C 232.000 320.675,232.288 320.800,233.772 320.800 C 235.305 320.800,235.562 320.921,235.672 321.700 C 235.787 322.506,236.056 322.612,238.258 322.718 C 240.286 322.815,240.751 322.970,240.916 323.602 C 241.092 324.272,241.560 324.382,244.658 324.484 C 247.986 324.593,248.208 324.654,248.328 325.500 C 248.455 326.395,248.495 326.400,255.628 326.400 C 262.533 326.400,262.800 326.430,262.800 327.200 C 262.800 327.995,263.067 328.000,301.800 328.000 L 340.800 328.000 340.800 325.400 C 340.800 323.098,340.712 322.800,340.028 322.800 C 339.532 322.800,339.210 322.478,339.128 321.900 C 339.046 321.322,338.678 320.954,338.100 320.872 C 337.337 320.764,337.200 320.499,337.200 319.135 C 337.200 317.862,337.033 317.481,336.400 317.316 C 335.957 317.200,335.600 316.770,335.600 316.353 C 335.600 315.816,335.313 315.600,334.600 315.600 C 333.696 315.600,333.600 315.442,333.600 313.963 C 333.600 312.677,333.433 312.281,332.822 312.122 C 332.395 312.010,331.990 311.532,331.922 311.059 C 331.847 310.529,331.464 310.152,330.922 310.075 C 330.201 309.973,330.022 309.649,329.922 308.275 C 329.821 306.887,329.646 306.578,328.900 306.472 C 328.305 306.388,328.000 306.070,328.000 305.535 C 328.000 305.062,327.668 304.638,327.200 304.516 C 326.757 304.400,326.400 303.970,326.400 303.553 C 326.400 303.016,326.113 302.800,325.400 302.800 C 324.481 302.800,324.400 302.653,324.400 301.000 C 324.400 299.488,324.276 299.200,323.628 299.200 C 323.132 299.200,322.810 298.878,322.728 298.300 C 322.646 297.722,322.278 297.354,321.700 297.272 C 320.937 297.164,320.800 296.899,320.800 295.535 C 320.800 294.262,320.633 293.881,320.000 293.716 C 319.557 293.600,319.200 293.170,319.200 292.753 C 319.200 292.216,318.913 292.000,318.200 292.000 C 317.281 292.000,317.200 291.853,317.200 290.200 C 317.200 288.688,317.076 288.400,316.428 288.400 C 315.932 288.400,315.610 288.078,315.528 287.500 C 315.446 286.922,315.078 286.554,314.500 286.472 C 313.737 286.364,313.600 286.099,313.600 284.735 C 313.600 283.485,313.429 283.080,312.834 282.925 C 312.413 282.815,311.959 282.291,311.826 281.762 C 311.673 281.151,311.296 280.800,310.792 280.800 C 310.267 280.800,310.000 280.531,310.000 280.000 C 310.000 279.413,309.733 279.200,309.000 279.200 C 308.081 279.200,308.000 279.053,308.000 277.400 C 308.000 275.867,307.881 275.600,307.200 275.600 C 306.613 275.600,306.400 275.333,306.400 274.600 C 306.400 273.800,306.200 273.600,305.400 273.600 C 304.496 273.600,304.400 273.442,304.400 271.963 C 304.400 270.662,304.236 270.282,303.600 270.116 C 303.160 270.001,302.800 269.571,302.800 269.161 C 302.800 268.699,302.419 268.320,301.800 268.164 C 300.948 267.950,300.800 267.683,300.800 266.357 C 300.800 265.085,300.658 264.800,300.028 264.800 C 299.532 264.800,299.210 264.478,299.128 263.900 C 299.046 263.322,298.678 262.954,298.100 262.872 C 297.449 262.780,297.200 262.476,297.200 261.772 C 297.200 261.067,296.981 260.800,296.400 260.800 C 295.783 260.800,295.600 260.533,295.600 259.633 C 295.600 257.945,295.219 257.200,294.357 257.200 C 293.867 257.200,293.600 256.918,293.600 256.400 C 293.600 255.867,293.333 255.600,292.800 255.600 C 292.183 255.600,292.000 255.333,292.000 254.433 C 292.000 252.745,291.619 252.000,290.757 252.000 C 290.216 252.000,290.000 251.714,290.000 251.000 C 290.000 250.200,289.800 250.000,289.000 250.000 C 288.096 250.000,288.000 249.842,288.000 248.363 C 288.000 247.062,287.836 246.682,287.200 246.516 C 286.760 246.401,286.400 245.971,286.400 245.561 C 286.400 245.099,286.019 244.720,285.400 244.564 C 284.554 244.352,284.400 244.080,284.400 242.803 C 284.400 241.630,284.222 241.247,283.600 241.084 C 283.121 240.959,282.800 240.538,282.800 240.037 C 282.800 239.411,282.548 239.200,281.800 239.200 C 281.000 239.200,280.800 239.000,280.800 238.200 C 280.800 237.467,280.587 237.200,280.000 237.200 C 279.383 237.200,279.200 236.933,279.200 236.033 C 279.200 234.345,278.819 233.600,277.957 233.600 C 277.467 233.600,277.200 233.318,277.200 232.800 C 277.200 232.283,276.933 232.000,276.445 232.000 C 275.858 232.000,275.631 231.602,275.421 230.200 C 275.208 228.778,274.988 228.400,274.375 228.400 C 273.815 228.400,273.600 228.123,273.600 227.400 C 273.600 226.687,273.384 226.400,272.845 226.400 C 272.258 226.400,272.031 226.002,271.821 224.600 C 271.612 223.205,271.383 222.800,270.803 222.800 C 270.332 222.800,270.008 222.467,269.928 221.900 C 269.846 221.322,269.478 220.954,268.900 220.872 C 268.322 220.790,268.000 220.468,268.000 219.972 C 268.000 219.467,267.724 219.200,267.200 219.200 C 266.519 219.200,266.400 218.933,266.400 217.400 C 266.400 215.747,266.319 215.600,265.400 215.600 C 264.600 215.600,264.400 215.400,264.400 214.600 C 264.400 213.877,264.185 213.600,263.624 213.600 C 263.016 213.600,262.821 213.275,262.724 212.100 C 262.633 210.997,262.362 210.495,261.700 210.205 C 261.205 209.988,260.800 209.505,260.800 209.132 C 260.800 208.759,260.440 208.340,260.000 208.200 C 259.499 208.041,259.200 207.595,259.200 207.006 C 259.200 205.541,258.783 204.800,257.957 204.800 C 257.416 204.800,257.200 204.514,257.200 203.800 C 257.200 203.079,256.985 202.800,256.428 202.800 C 255.932 202.800,255.610 202.478,255.528 201.900 C 255.446 201.322,255.078 200.954,254.500 200.872 C 253.737 200.764,253.600 200.499,253.600 199.135 C 253.600 197.862,253.433 197.481,252.800 197.316 C 251.325 196.930,251.839 195.697,253.600 195.400 C 254.790 195.199,255.200 194.941,255.200 194.393 C 255.200 193.933,255.539 193.608,256.100 193.528 C 256.678 193.446,257.046 193.078,257.128 192.500 C 257.208 191.934,257.533 191.600,258.001 191.600 C 258.411 191.600,258.860 191.240,259.000 190.800 C 259.140 190.360,259.602 190.000,260.027 190.000 C 260.585 190.000,260.800 189.722,260.800 189.000 C 260.800 188.200,261.000 188.000,261.800 188.000 C 262.533 188.000,262.800 187.787,262.800 187.200 C 262.800 186.667,263.067 186.400,263.600 186.400 C 264.187 186.400,264.400 186.133,264.400 185.400 C 264.400 184.600,264.600 184.400,265.400 184.400 C 266.133 184.400,266.400 184.187,266.400 183.600 C 266.400 183.067,266.667 182.800,267.200 182.800 C 267.787 182.800,268.000 182.533,268.000 181.800 C 268.000 181.000,268.200 180.800,269.000 180.800 C 269.721 180.800,270.000 180.585,270.000 180.028 C 270.000 179.532,270.322 179.210,270.900 179.128 C 271.478 179.046,271.846 178.678,271.928 178.100 C 272.010 177.522,272.332 177.200,272.828 177.200 C 273.318 177.200,273.600 176.924,273.600 176.445 C 273.600 175.858,273.998 175.631,275.400 175.421 C 276.822 175.208,277.200 174.988,277.200 174.375 C 277.200 173.881,277.475 173.600,277.957 173.600 C 278.430 173.600,278.807 173.226,278.964 172.600 C 279.126 171.954,279.496 171.600,280.008 171.600 C 280.524 171.600,280.800 171.331,280.800 170.828 C 280.800 170.332,281.122 170.010,281.700 169.928 C 282.278 169.846,282.646 169.478,282.728 168.900 C 282.810 168.322,283.132 168.000,283.628 168.000 C 284.124 168.000,284.400 167.724,284.400 167.228 C 284.400 166.732,284.722 166.410,285.300 166.328 C 285.878 166.246,286.246 165.878,286.328 165.300 C 286.410 164.722,286.732 164.400,287.228 164.400 C 287.733 164.400,288.000 164.124,288.000 163.600 C 288.000 163.013,288.267 162.800,289.000 162.800 C 289.800 162.800,290.000 162.600,290.000 161.800 C 290.000 161.000,290.200 160.800,291.000 160.800 C 291.733 160.800,292.000 160.587,292.000 160.000 C 292.000 159.467,292.267 159.200,292.800 159.200 C 293.387 159.200,293.600 158.933,293.600 158.200 C 293.600 157.400,293.800 157.200,294.600 157.200 C 295.318 157.200,295.600 156.984,295.600 156.435 C 295.600 155.856,295.984 155.605,297.183 155.403 C 298.203 155.230,298.848 154.878,298.997 154.411 C 299.123 154.012,299.581 153.594,300.013 153.481 C 300.446 153.367,300.800 152.984,300.800 152.628 C 300.800 152.272,301.250 151.809,301.800 151.600 C 302.350 151.391,302.800 150.945,302.800 150.610 C 302.800 150.267,303.150 150.000,303.600 150.000 C 304.187 150.000,304.400 149.733,304.400 149.000 C 304.400 148.200,304.600 148.000,305.400 148.000 C 306.133 148.000,306.400 147.787,306.400 147.200 C 306.400 146.667,306.667 146.400,307.200 146.400 C 307.787 146.400,308.000 146.133,308.000 145.400 C 308.000 144.600,308.200 144.400,309.000 144.400 C 309.721 144.400,310.000 144.185,310.000 143.628 C 310.000 143.132,310.322 142.810,310.900 142.728 C 311.478 142.646,311.846 142.278,311.928 141.700 C 312.010 141.122,312.332 140.800,312.828 140.800 C 313.324 140.800,313.600 140.524,313.600 140.028 C 313.600 139.532,313.922 139.210,314.500 139.128 C 315.078 139.046,315.446 138.678,315.528 138.100 C 315.610 137.522,315.932 137.200,316.428 137.200 C 316.918 137.200,317.200 136.924,317.200 136.445 C 317.200 135.858,317.598 135.631,319.000 135.421 C 320.422 135.208,320.800 134.988,320.800 134.375 C 320.800 133.869,321.075 133.600,321.592 133.600 C 322.104 133.600,322.474 133.246,322.636 132.600 C 322.793 131.974,323.170 131.600,323.643 131.600 C 324.133 131.600,324.400 131.318,324.400 130.800 C 324.400 130.213,324.667 130.000,325.400 130.000 C 326.200 130.000,326.400 129.800,326.400 129.000 C 326.400 128.267,326.613 128.000,327.200 128.000 C 327.733 128.000,328.000 127.733,328.000 127.200 C 328.000 126.613,328.267 126.400,329.000 126.400 C 329.800 126.400,330.000 126.200,330.000 125.400 C 330.000 124.600,330.200 124.400,331.000 124.400 C 331.733 124.400,332.000 124.187,332.000 123.600 C 332.000 123.067,332.267 122.800,332.800 122.800 C 333.387 122.800,333.600 122.533,333.600 121.800 C 333.600 121.000,333.800 120.800,334.600 120.800 C 335.333 120.800,335.600 120.587,335.600 120.000 C 335.600 119.467,335.867 119.200,336.400 119.200 C 336.987 119.200,337.200 118.933,337.200 118.200 C 337.200 117.400,337.400 117.200,338.200 117.200 C 338.911 117.200,339.200 116.983,339.200 116.451 C 339.200 115.884,339.597 115.639,340.840 115.440 C 341.972 115.259,342.542 114.945,342.677 114.426 C 342.785 114.012,343.217 113.584,343.637 113.474 C 344.057 113.365,344.400 112.984,344.400 112.628 C 344.400 112.272,344.850 111.809,345.400 111.600 C 345.950 111.391,346.400 110.945,346.400 110.610 C 346.400 110.267,346.750 110.000,347.200 110.000 C 347.787 110.000,348.000 109.733,348.000 109.000 C 348.000 108.200,348.200 108.000,349.000 108.000 C 349.733 108.000,350.000 107.787,350.000 107.200 C 350.000 106.669,350.267 106.400,350.792 106.400 C 351.304 106.400,351.674 106.046,351.836 105.400 C 351.993 104.774,352.370 104.400,352.843 104.400 C 353.324 104.400,353.600 104.119,353.600 103.628 C 353.600 103.132,353.922 102.810,354.500 102.728 C 355.078 102.646,355.446 102.278,355.528 101.700 C 355.610 101.122,355.932 100.800,356.428 100.800 C 356.933 100.800,357.200 100.524,357.200 100.000 C 357.200 99.413,357.467 99.200,358.200 99.200 C 359.000 99.200,359.200 99.000,359.200 98.200 C 359.200 97.467,359.413 97.200,360.000 97.200 C 360.517 97.200,360.800 96.933,360.800 96.445 C 360.800 95.858,361.198 95.631,362.600 95.421 C 364.022 95.208,364.400 94.988,364.400 94.375 C 364.400 93.869,364.675 93.600,365.192 93.600 C 365.704 93.600,366.074 93.246,366.236 92.600 C 366.393 91.974,366.770 91.600,367.243 91.600 C 367.733 91.600,368.000 91.318,368.000 90.800 C 368.000 90.213,368.267 90.000,369.000 90.000 C 369.800 90.000,370.000 89.800,370.000 89.000 C 370.000 88.252,370.211 88.000,370.837 88.000 C 371.338 88.000,371.759 87.679,371.884 87.200 C 372.000 86.757,372.430 86.400,372.847 86.400 C 373.384 86.400,373.600 86.113,373.600 85.400 C 373.600 84.600,373.800 84.400,374.600 84.400 C 375.333 84.400,375.600 84.187,375.600 83.600 C 375.600 83.067,375.867 82.800,376.400 82.800 C 376.987 82.800,377.200 82.533,377.200 81.800 C 377.200 81.000,377.400 80.800,378.200 80.800 C 378.933 80.800,379.200 80.587,379.200 80.000 C 379.200 79.467,379.467 79.200,380.000 79.200 C 380.587 79.200,380.800 78.933,380.800 78.200 C 380.800 77.400,381.000 77.200,381.800 77.200 C 382.511 77.200,382.800 76.983,382.800 76.451 C 382.800 75.884,383.197 75.639,384.440 75.440 C 385.572 75.259,386.142 74.945,386.277 74.426 C 386.385 74.012,386.817 73.584,387.237 73.474 C 387.880 73.306,388.000 72.900,388.000 70.892 L 388.000 68.509 386.144 68.254 C 383.241 67.856,326.315 68.004,325.300 68.412 " stroke="none" fill="#040404" fill-rule="evenodd"></path><path id="path1" d="M68.600 68.373 C 68.160 68.547,67.593 68.612,67.340 68.517 C 67.088 68.423,66.745 68.566,66.579 68.835 C 66.385 69.147,66.443 69.221,66.738 69.038 C 67.015 68.867,67.200 69.013,67.200 69.400 C 67.200 69.756,67.020 69.936,66.800 69.800 C 66.580 69.664,66.403 69.698,66.406 69.876 C 66.416 70.410,66.964 71.069,67.557 71.259 C 67.864 71.358,68.164 71.899,68.224 72.463 C 68.284 73.026,68.780 73.969,69.326 74.557 C 69.949 75.230,70.241 75.920,70.112 76.414 C 69.947 77.047,70.110 77.200,70.953 77.200 C 71.803 77.200,72.000 77.388,72.000 78.200 C 72.000 78.923,72.215 79.200,72.777 79.200 C 73.405 79.200,73.578 79.526,73.677 80.900 C 73.749 81.892,74.008 82.621,74.300 82.650 C 74.575 82.678,74.980 82.723,75.200 82.750 C 75.420 82.778,75.600 83.160,75.600 83.600 C 75.600 84.133,75.867 84.400,76.400 84.400 C 76.917 84.400,77.218 84.683,77.250 85.200 C 77.278 85.640,77.345 86.180,77.400 86.400 C 77.455 86.620,77.523 87.070,77.550 87.400 C 77.578 87.730,77.960 88.000,78.400 88.000 C 78.945 88.000,79.200 88.267,79.200 88.837 C 79.200 89.338,79.521 89.759,80.000 89.884 C 80.626 90.048,80.800 90.430,80.800 91.639 C 80.800 92.954,80.949 93.222,81.800 93.436 C 82.447 93.598,82.800 93.967,82.800 94.481 C 82.800 94.938,83.139 95.364,83.600 95.484 C 84.142 95.626,84.402 96.033,84.406 96.747 C 84.413 97.999,84.752 98.567,85.700 98.917 C 86.085 99.059,86.400 99.455,86.400 99.797 C 86.400 100.140,86.839 100.587,87.377 100.791 C 87.914 100.995,88.361 101.486,88.371 101.881 C 88.417 103.676,88.582 104.122,89.267 104.302 C 89.719 104.420,90.000 104.859,90.000 105.447 C 90.000 106.197,90.213 106.400,91.000 106.400 C 91.897 106.400,92.000 106.562,92.000 107.973 C 92.000 109.178,92.181 109.604,92.775 109.792 C 93.201 109.927,93.606 110.434,93.675 110.919 C 93.754 111.479,94.128 111.847,94.700 111.928 C 95.380 112.024,95.600 112.320,95.600 113.139 C 95.600 113.735,95.960 114.530,96.400 114.907 C 96.840 115.284,97.200 115.861,97.200 116.188 C 97.200 116.516,97.650 116.898,98.200 117.036 C 99.077 117.256,99.200 117.503,99.200 119.043 C 99.200 120.632,99.292 120.800,100.163 120.800 C 100.921 120.800,101.082 120.966,100.921 121.582 C 100.768 122.167,100.968 122.427,101.720 122.616 C 102.467 122.803,102.789 123.215,102.978 124.223 C 103.118 124.968,103.506 125.732,103.841 125.919 C 104.176 126.107,104.500 126.606,104.561 127.030 C 104.624 127.466,105.047 127.855,105.536 127.928 C 106.173 128.022,106.402 128.338,106.406 129.128 C 106.413 130.398,106.749 130.966,107.700 131.317 C 108.114 131.469,108.400 131.988,108.400 132.587 C 108.400 133.333,108.611 133.600,109.200 133.600 C 109.845 133.600,110.000 133.867,110.000 134.976 C 110.000 135.733,110.208 136.481,110.462 136.638 C 110.748 136.815,110.815 136.748,110.638 136.462 C 110.481 136.208,110.537 136.000,110.762 136.000 C 111.303 136.000,112.000 137.336,112.000 138.374 C 112.000 138.933,112.258 139.200,112.800 139.200 C 113.333 139.200,113.600 139.467,113.600 140.000 C 113.600 140.440,113.780 140.800,114.000 140.800 C 114.220 140.800,114.400 141.160,114.400 141.600 C 114.400 142.040,114.584 142.400,114.810 142.400 C 115.035 142.400,115.391 142.850,115.600 143.400 C 115.809 143.950,116.255 144.400,116.590 144.400 C 116.998 144.400,117.200 144.788,117.200 145.571 C 117.200 146.705,118.068 148.000,118.829 148.000 C 119.033 148.000,119.200 148.348,119.200 148.773 C 119.200 149.198,119.560 149.660,120.000 149.800 C 120.440 149.940,120.822 150.222,120.850 150.427 C 120.878 150.632,120.945 150.980,121.000 151.200 C 121.055 151.420,121.123 151.870,121.150 152.200 C 121.178 152.530,121.438 152.800,121.728 152.800 C 122.018 152.800,122.517 153.385,122.837 154.100 C 123.157 154.815,123.639 155.355,123.909 155.300 C 124.193 155.242,124.400 155.622,124.400 156.200 C 124.400 156.750,124.601 157.200,124.847 157.200 C 125.092 157.200,125.203 157.546,125.092 157.968 C 124.939 158.555,125.070 158.702,125.646 158.591 C 126.247 158.475,126.400 158.685,126.400 159.623 C 126.400 160.511,126.586 160.800,127.157 160.800 C 127.630 160.800,128.007 161.174,128.164 161.800 C 128.326 162.446,128.696 162.800,129.208 162.800 C 129.816 162.800,130.000 163.070,130.000 163.967 C 130.000 165.655,130.381 166.400,131.243 166.400 C 131.733 166.400,132.000 166.682,132.000 167.200 C 132.000 167.733,132.267 168.000,132.800 168.000 C 133.584 168.000,133.840 168.854,133.668 170.900 C 133.636 171.285,133.787 171.623,134.005 171.650 C 134.222 171.678,134.625 171.722,134.900 171.750 C 135.175 171.778,135.458 172.205,135.528 172.700 C 135.610 173.278,135.932 173.600,136.428 173.600 C 137.014 173.600,137.200 173.881,137.200 174.767 C 137.200 176.455,137.581 177.200,138.443 177.200 C 138.945 177.200,139.200 177.482,139.200 178.037 C 139.200 178.538,139.521 178.959,140.000 179.084 C 140.440 179.199,140.822 179.542,140.850 179.847 C 140.878 180.151,140.945 180.760,141.000 181.200 C 141.055 181.640,141.123 182.180,141.150 182.400 C 141.177 182.620,141.335 182.779,141.500 182.753 C 142.384 182.613,142.800 182.884,142.800 183.600 C 142.800 184.133,143.067 184.400,143.600 184.400 C 144.133 184.400,144.400 184.667,144.400 185.200 C 144.400 186.846,145.033 188.151,145.647 187.771 C 146.022 187.539,146.576 188.769,146.420 189.489 C 146.383 189.660,146.754 189.895,147.244 190.010 C 148.714 190.357,148.668 193.332,147.187 193.719 C 146.720 193.841,146.400 194.266,146.400 194.763 C 146.400 195.389,146.148 195.600,145.400 195.600 C 144.687 195.600,144.400 195.816,144.400 196.353 C 144.400 196.770,144.043 197.200,143.600 197.316 C 143.121 197.441,142.800 197.862,142.800 198.363 C 142.800 198.989,142.548 199.200,141.800 199.200 C 140.856 199.200,139.053 200.520,139.452 200.919 C 139.554 201.021,139.224 201.209,138.719 201.337 C 138.213 201.465,137.562 201.956,137.270 202.427 C 136.831 203.138,136.831 203.232,137.270 202.979 C 137.562 202.811,137.350 203.117,136.800 203.660 C 136.250 204.202,135.593 204.578,135.340 204.495 C 135.088 204.413,134.760 204.541,134.613 204.779 C 134.465 205.018,134.179 205.111,133.977 204.986 C 133.775 204.861,133.706 205.011,133.825 205.320 C 133.949 205.644,133.608 206.165,133.020 206.550 C 132.459 206.918,132.000 207.484,132.000 207.809 C 132.000 208.336,131.230 208.610,130.251 208.431 C 130.059 208.396,130.000 208.623,130.120 208.935 C 130.398 209.660,129.670 210.402,128.951 210.126 C 128.589 209.987,128.400 210.207,128.400 210.767 C 128.400 211.309,128.035 211.759,127.400 212.000 C 126.850 212.209,126.400 212.634,126.400 212.943 C 126.400 213.253,126.027 213.604,125.570 213.724 C 125.114 213.843,124.643 214.314,124.524 214.770 C 124.401 215.239,123.979 215.600,123.553 215.600 C 123.076 215.600,122.800 215.883,122.800 216.372 C 122.800 216.868,122.478 217.190,121.900 217.272 C 121.322 217.354,120.954 217.722,120.872 218.300 C 120.790 218.878,120.468 219.200,119.972 219.200 C 119.467 219.200,119.200 219.476,119.200 220.000 C 119.200 220.577,118.933 220.800,118.243 220.800 C 117.716 220.800,117.178 221.081,117.046 221.425 C 116.911 221.775,116.601 221.924,116.341 221.764 C 116.059 221.589,115.984 221.651,116.150 221.919 C 116.304 222.168,115.990 222.589,115.433 222.881 C 114.888 223.166,114.433 223.535,114.421 223.700 C 114.410 223.865,114.400 224.180,114.400 224.400 C 114.400 224.620,114.130 224.800,113.800 224.800 C 113.470 224.800,113.200 224.959,113.200 225.154 C 113.200 225.590,111.200 226.933,110.550 226.933 C 110.290 226.933,110.167 227.171,110.279 227.461 C 110.398 227.771,110.051 228.152,109.441 228.385 C 108.836 228.614,108.400 229.091,108.400 229.522 C 108.400 230.034,108.121 230.254,107.500 230.232 C 106.859 230.209,106.563 230.459,106.472 231.100 C 106.392 231.666,106.067 232.000,105.599 232.000 C 105.189 232.000,104.740 232.360,104.600 232.800 C 104.460 233.240,103.998 233.600,103.573 233.600 C 103.015 233.600,102.800 233.878,102.800 234.600 C 102.800 235.348,102.589 235.600,101.963 235.600 C 101.462 235.600,101.041 235.921,100.916 236.400 C 100.725 237.129,100.313 237.376,99.500 237.247 C 99.335 237.221,99.221 237.335,99.247 237.500 C 99.421 238.601,99.109 239.200,98.363 239.200 C 97.862 239.200,97.441 239.521,97.316 240.000 C 97.200 240.443,96.770 240.800,96.353 240.800 C 95.816 240.800,95.600 241.087,95.600 241.800 C 95.600 242.522,95.385 242.800,94.827 242.800 C 94.402 242.800,93.940 243.160,93.800 243.600 C 93.660 244.040,93.378 244.423,93.173 244.450 C 92.413 244.552,92.174 244.645,91.000 245.299 C 90.340 245.667,90.047 245.975,90.349 245.984 C 90.791 245.997,90.801 246.116,90.400 246.600 C 89.792 247.332,88.627 247.418,89.041 246.700 C 89.208 246.409,89.176 246.340,88.964 246.536 C 88.764 246.721,88.600 247.261,88.600 247.736 C 88.600 248.355,88.355 248.600,87.736 248.600 C 87.261 248.600,86.721 248.764,86.536 248.964 C 86.340 249.176,86.409 249.208,86.700 249.041 C 87.013 248.861,87.200 248.995,87.200 249.400 C 87.200 249.756,87.032 249.944,86.828 249.817 C 86.623 249.691,86.347 249.762,86.215 249.976 C 86.083 250.190,85.732 250.272,85.437 250.159 C 85.105 250.031,84.803 250.334,84.648 250.949 C 84.511 251.498,84.058 252.055,83.642 252.187 C 83.227 252.319,82.788 252.804,82.667 253.265 C 82.522 253.820,82.238 254.024,81.828 253.866 C 81.400 253.702,81.132 253.934,80.961 254.614 C 80.811 255.211,80.425 255.600,79.984 255.600 C 79.533 255.600,79.207 255.943,79.128 256.500 C 79.044 257.091,78.725 257.400,78.200 257.400 C 77.667 257.400,77.400 257.667,77.400 258.200 C 77.400 258.725,77.091 259.044,76.500 259.128 C 75.935 259.208,75.600 259.533,75.600 260.000 C 75.600 260.467,75.265 260.792,74.700 260.872 C 74.122 260.954,73.754 261.322,73.672 261.900 C 73.592 262.465,73.267 262.800,72.800 262.800 C 72.333 262.800,72.008 263.135,71.928 263.700 C 71.844 264.291,71.525 264.600,71.000 264.600 C 70.486 264.600,70.156 264.908,70.077 265.460 C 69.988 266.088,69.579 266.390,68.556 266.582 C 67.787 266.726,67.051 267.124,66.919 267.466 C 66.494 268.573,64.731 270.204,64.103 270.070 C 63.681 269.980,63.569 270.142,63.741 270.591 C 63.878 270.949,63.832 271.143,63.637 271.023 C 63.443 270.903,63.186 271.060,63.066 271.371 C 62.947 271.683,62.433 271.997,61.924 272.069 C 61.322 272.154,60.956 272.513,60.872 273.100 C 60.802 273.595,60.470 274.000,60.135 274.000 C 59.799 274.000,59.435 274.343,59.326 274.763 C 59.216 275.183,58.769 275.619,58.333 275.733 C 57.897 275.847,57.448 276.293,57.336 276.724 C 57.195 277.262,56.891 277.444,56.365 277.307 C 55.756 277.147,55.600 277.319,55.600 278.153 C 55.600 279.003,55.412 279.200,54.600 279.200 C 53.867 279.200,53.600 279.413,53.600 280.000 C 53.600 280.533,53.333 280.800,52.800 280.800 C 52.213 280.800,52.000 281.067,52.000 281.800 C 52.000 282.548,51.789 282.800,51.163 282.800 C 50.662 282.800,50.241 283.121,50.116 283.600 C 50.001 284.040,49.587 284.400,49.197 284.400 C 48.773 284.400,48.386 284.803,48.236 285.400 C 48.074 286.046,47.704 286.400,47.192 286.400 C 46.690 286.400,46.400 286.669,46.400 287.136 C 46.400 287.957,44.718 288.897,43.845 288.562 C 43.535 288.443,43.145 288.566,42.979 288.835 C 42.785 289.147,42.843 289.221,43.138 289.038 C 43.392 288.881,43.600 288.943,43.600 289.176 C 43.600 289.409,43.409 289.600,43.176 289.600 C 42.943 289.600,42.856 289.768,42.983 289.972 C 43.109 290.177,43.030 290.458,42.807 290.596 C 42.583 290.734,42.399 290.612,42.399 290.324 C 42.398 290.036,42.035 290.394,41.592 291.120 C 41.150 291.846,40.610 292.330,40.394 292.196 C 40.177 292.062,40.000 292.154,40.000 292.400 C 40.000 292.646,39.792 292.719,39.538 292.562 C 39.263 292.391,39.185 292.451,39.345 292.711 C 39.644 293.194,38.922 293.773,38.000 293.789 C 37.670 293.795,37.399 294.142,37.398 294.560 C 37.397 294.979,37.050 295.442,36.628 295.590 C 36.205 295.738,35.738 296.205,35.590 296.628 C 35.442 297.050,34.979 297.397,34.560 297.398 C 34.093 297.399,33.799 297.681,33.797 298.130 C 33.794 298.839,32.440 299.960,32.360 299.320 C 32.338 299.144,32.195 299.450,32.041 300.000 C 31.865 300.630,31.473 301.000,30.981 301.000 C 30.476 301.000,30.155 301.318,30.072 301.900 C 29.992 302.465,29.667 302.800,29.200 302.800 C 28.733 302.800,28.408 303.135,28.328 303.700 C 28.244 304.291,27.925 304.600,27.400 304.600 C 26.882 304.600,26.556 304.908,26.475 305.475 C 26.398 306.021,26.021 306.398,25.475 306.476 C 24.947 306.551,24.620 306.865,24.650 307.269 C 24.680 307.663,24.310 308.036,23.750 308.177 C 23.150 308.327,22.800 308.707,22.800 309.208 C 22.800 309.749,22.515 310.015,21.900 310.046 C 20.004 310.143,19.803 310.218,19.802 310.827 C 19.800 311.495,19.044 312.331,17.810 313.027 C 17.394 313.261,16.861 313.797,16.627 314.218 C 16.026 315.292,15.123 315.972,14.276 315.987 C 13.878 315.994,13.664 316.179,13.799 316.398 C 13.934 316.617,13.585 317.006,13.023 317.263 C 12.460 317.519,12.000 318.060,12.000 318.464 C 12.000 319.114,11.318 319.419,10.270 319.237 C 10.089 319.206,10.032 319.328,10.144 319.509 C 10.433 319.977,9.727 321.000,9.115 321.000 C 8.832 321.000,8.542 321.405,8.472 321.900 C 8.381 322.543,8.075 322.800,7.399 322.800 C 6.665 322.800,6.425 323.046,6.327 323.900 C 6.230 324.741,6.011 324.972,5.400 324.883 C 4.884 324.808,4.770 324.883,5.079 325.094 C 5.373 325.295,5.426 325.635,5.216 325.975 C 5.013 326.303,5.061 326.830,5.335 327.268 C 6.082 328.464,82.371 328.396,82.684 327.199 C 82.880 326.449,83.334 326.409,92.745 326.307 L 102.600 326.200 102.728 325.300 C 102.850 324.436,103.014 324.400,106.795 324.400 C 111.068 324.400,112.000 324.213,112.000 323.357 C 112.000 322.938,112.648 322.800,114.626 322.800 C 117.428 322.800,118.800 322.335,118.800 321.386 C 118.800 320.956,119.290 320.800,120.637 320.800 C 122.138 320.800,122.513 320.654,122.684 320.000 C 122.871 319.287,123.539 318.987,124.541 319.166 C 125.162 319.278,126.415 318.748,126.232 318.452 C 125.851 317.835,126.736 317.148,127.958 317.114 C 128.882 317.087,129.179 316.921,129.024 316.518 C 128.906 316.210,128.977 316.062,129.182 316.189 C 129.387 316.315,130.189 315.785,130.964 315.009 C 131.739 314.234,132.649 313.600,132.987 313.600 C 133.333 313.600,133.600 313.252,133.600 312.800 C 133.600 312.278,133.867 312.000,134.367 312.000 C 135.559 312.000,136.400 311.569,136.400 310.957 C 136.400 310.651,136.580 310.400,136.800 310.400 C 137.020 310.400,137.200 310.109,137.200 309.753 C 137.200 309.304,137.444 309.170,138.000 309.316 C 138.593 309.471,138.800 309.328,138.800 308.763 C 138.800 308.255,139.080 308.000,139.637 308.000 C 140.130 308.000,140.559 307.680,140.678 307.222 C 140.790 306.795,141.266 306.390,141.737 306.322 C 142.207 306.255,142.653 305.879,142.728 305.486 C 142.903 304.566,144.566 302.903,145.486 302.728 C 145.879 302.653,146.258 302.189,146.328 301.696 C 146.398 301.203,146.730 300.800,147.065 300.800 C 147.401 300.800,147.765 300.455,147.875 300.034 C 147.985 299.613,148.508 299.159,149.035 299.027 C 149.563 298.894,149.975 298.654,149.950 298.493 C 149.828 297.699,150.051 297.200,150.528 297.200 C 150.818 297.200,151.447 296.750,151.925 296.200 C 152.403 295.650,152.976 295.200,153.197 295.200 C 153.419 295.200,153.600 294.840,153.600 294.400 C 153.600 293.869,153.867 293.600,154.392 293.600 C 154.904 293.600,155.274 293.246,155.436 292.600 C 155.574 292.050,155.847 291.600,156.043 291.600 C 156.240 291.600,156.400 291.330,156.400 291.000 C 156.400 290.670,156.580 290.400,156.800 290.400 C 157.020 290.400,157.200 290.109,157.200 289.753 C 157.200 289.304,157.444 289.170,158.000 289.316 C 158.593 289.471,158.800 289.328,158.800 288.763 C 158.800 288.267,159.080 288.000,159.600 288.000 C 160.040 288.000,160.381 287.865,160.357 287.700 C 160.232 286.832,160.934 285.677,161.463 285.880 C 161.832 286.021,162.128 285.797,162.265 285.274 C 162.384 284.818,162.868 284.390,163.341 284.322 C 163.864 284.248,164.248 283.864,164.322 283.341 C 164.390 282.868,164.818 282.384,165.274 282.265 C 165.797 282.128,166.021 281.832,165.880 281.463 C 165.677 280.934,166.832 280.232,167.700 280.357 C 167.865 280.381,168.000 280.040,168.000 279.600 C 168.000 279.080,168.267 278.800,168.763 278.800 C 169.328 278.800,169.471 278.593,169.316 278.000 C 169.170 277.444,169.304 277.200,169.753 277.200 C 170.109 277.200,170.400 277.020,170.400 276.800 C 170.400 276.580,170.580 276.400,170.800 276.400 C 171.424 276.400,172.800 274.870,172.800 274.176 C 172.800 273.833,172.980 273.664,173.200 273.800 C 173.426 273.940,173.600 273.613,173.600 273.051 C 173.600 272.323,173.842 272.021,174.500 271.928 C 175.078 271.846,175.446 271.478,175.528 270.900 C 175.610 270.322,175.932 270.000,176.428 270.000 C 176.985 270.000,177.200 269.721,177.200 269.000 C 177.200 268.200,177.400 268.000,178.200 268.000 C 178.933 268.000,179.200 267.787,179.200 267.200 C 179.200 266.667,179.467 266.400,180.000 266.400 C 180.587 266.400,180.800 266.133,180.800 265.400 C 180.800 264.600,181.000 264.400,181.800 264.400 C 182.533 264.400,182.800 264.187,182.800 263.600 C 182.800 263.067,183.067 262.800,183.600 262.800 C 184.187 262.800,184.400 262.533,184.400 261.800 C 184.400 261.000,184.600 260.800,185.400 260.800 C 186.133 260.800,186.400 260.587,186.400 260.000 C 186.400 259.467,186.667 259.200,187.200 259.200 C 187.787 259.200,188.000 258.933,188.000 258.200 C 188.000 257.408,188.202 257.200,188.972 257.200 C 189.676 257.200,189.980 256.951,190.072 256.300 C 190.153 255.728,190.477 255.399,190.960 255.398 C 191.440 255.397,191.771 255.065,191.858 254.498 C 191.933 254.004,191.837 253.600,191.644 253.600 C 190.934 253.600,190.866 251.852,191.518 250.348 C 191.887 249.497,192.327 248.800,192.497 248.800 C 192.667 248.800,193.197 248.350,193.675 247.800 C 194.153 247.250,194.753 246.800,195.008 246.800 C 195.263 246.800,195.677 246.350,195.927 245.800 C 196.178 245.250,196.548 244.800,196.749 244.800 C 197.267 244.800,199.600 242.563,199.600 242.066 C 199.600 241.840,199.951 241.543,200.380 241.406 C 200.808 241.270,201.270 240.808,201.406 240.380 C 201.543 239.951,201.818 239.600,202.020 239.600 C 202.221 239.600,203.522 238.463,204.911 237.074 C 206.300 235.685,207.744 234.430,208.119 234.287 C 208.493 234.143,208.800 233.749,208.800 233.413 C 208.800 233.076,208.959 232.800,209.153 232.800 C 209.347 232.800,210.247 232.059,211.153 231.153 C 212.059 230.247,212.800 229.347,212.800 229.153 C 212.800 228.959,213.076 228.800,213.413 228.800 C 213.749 228.800,214.137 228.507,214.275 228.149 C 214.412 227.792,215.081 226.992,215.762 226.373 C 216.443 225.754,219.970 222.370,223.600 218.852 C 227.230 215.335,230.833 211.949,231.607 211.328 C 232.380 210.708,235.393 207.815,238.302 204.900 C 241.211 201.985,243.690 199.600,243.809 199.600 C 245.592 199.600,247.209 195.793,246.012 194.414 C 245.578 193.914,245.111 193.149,244.972 192.713 C 244.834 192.277,244.457 191.624,244.135 191.261 C 242.788 189.741,241.200 187.459,241.200 187.041 C 241.200 186.794,240.840 186.368,240.400 186.093 C 239.960 185.818,239.600 185.353,239.600 185.059 C 239.600 184.765,239.245 184.202,238.810 183.809 C 238.376 183.416,237.901 182.713,237.755 182.247 C 237.610 181.781,237.058 180.860,236.528 180.200 C 234.410 177.558,232.400 174.565,232.400 174.052 C 232.400 173.880,231.950 173.317,231.400 172.800 C 230.850 172.283,230.400 171.629,230.400 171.346 C 230.400 171.063,230.074 170.509,229.676 170.116 C 228.951 169.399,226.328 165.639,225.200 163.699 C 224.870 163.132,224.363 162.382,224.074 162.034 C 223.126 160.892,221.629 158.618,221.220 157.700 C 221.000 157.205,220.626 156.800,220.389 156.800 C 220.152 156.800,219.770 156.260,219.540 155.600 C 219.310 154.940,218.971 154.400,218.787 154.400 C 218.603 154.400,218.224 153.770,217.946 153.000 C 217.667 152.230,217.301 151.600,217.132 151.600 C 216.803 151.600,214.000 147.384,214.000 146.888 C 214.000 146.726,213.640 146.368,213.200 146.093 C 212.760 145.818,212.400 145.356,212.400 145.066 C 212.400 144.777,211.950 144.117,211.400 143.600 C 210.850 143.083,210.400 142.360,210.400 141.992 C 210.400 141.625,210.040 140.998,209.600 140.600 C 208.645 139.736,208.593 138.889,209.398 137.346 C 210.484 135.262,210.108 132.000,208.780 132.000 C 208.202 132.000,208.020 131.638,207.923 130.300 C 207.837 129.110,207.620 128.600,207.200 128.600 C 206.779 128.600,206.563 128.087,206.476 126.881 C 206.375 125.485,206.169 125.092,205.376 124.791 C 204.597 124.495,204.400 124.136,204.400 123.013 C 204.400 122.040,204.154 121.453,203.600 121.107 C 203.160 120.832,202.794 120.246,202.787 119.804 C 202.772 118.853,201.902 117.600,201.256 117.600 C 201.005 117.600,200.787 117.015,200.772 116.300 C 200.738 114.721,200.303 113.522,199.790 113.595 C 199.582 113.625,199.263 113.074,199.080 112.370 C 198.725 110.997,197.851 109.882,197.448 110.286 C 197.311 110.422,197.200 110.089,197.200 109.547 C 197.200 109.004,196.984 108.344,196.720 108.080 C 196.347 107.707,196.352 107.600,196.744 107.600 C 197.021 107.600,197.134 107.417,196.996 107.193 C 196.858 106.970,196.557 106.903,196.328 107.045 C 195.776 107.385,195.164 106.374,195.421 105.547 C 195.632 104.868,194.613 104.221,193.964 104.622 C 193.764 104.746,193.600 104.221,193.600 103.456 C 193.600 101.672,193.258 100.800,192.557 100.800 C 192.251 100.800,192.000 100.528,192.000 100.197 C 192.000 99.865,191.463 98.852,190.807 97.947 C 190.151 97.041,189.712 96.143,189.831 95.950 C 189.950 95.758,189.587 95.600,189.024 95.600 C 188.198 95.600,188.000 95.406,188.000 94.600 C 188.000 93.887,187.784 93.600,187.245 93.600 C 186.660 93.600,186.432 93.205,186.227 91.842 C 186.004 90.351,185.845 90.115,185.182 90.289 C 184.553 90.453,184.400 90.288,184.400 89.447 C 184.400 88.667,184.196 88.400,183.600 88.400 C 183.013 88.400,182.800 88.133,182.800 87.400 C 182.800 86.608,182.598 86.400,181.828 86.400 C 181.124 86.400,180.820 86.151,180.728 85.500 C 180.658 85.005,180.330 84.600,180.000 84.600 C 179.670 84.600,179.303 84.240,179.184 83.800 C 179.065 83.360,178.581 82.944,178.108 82.875 C 177.580 82.799,177.201 82.414,177.125 81.875 C 177.044 81.308,176.718 81.000,176.200 81.000 C 175.760 81.000,175.034 80.595,174.587 80.100 C 174.140 79.605,173.375 79.200,172.887 79.200 C 172.399 79.200,172.000 79.033,172.000 78.829 C 172.000 78.022,170.673 77.200,169.371 77.200 C 168.267 77.200,168.000 77.044,168.000 76.400 C 168.000 75.719,167.733 75.600,166.200 75.600 C 164.707 75.600,164.400 75.472,164.400 74.850 C 164.400 74.047,163.034 73.600,160.577 73.600 C 159.605 73.600,159.186 73.388,159.000 72.800 C 158.772 72.082,158.395 72.000,155.336 72.000 C 152.268 72.000,151.904 71.920,151.717 71.204 C 151.603 70.767,151.350 70.508,151.155 70.628 C 150.960 70.749,150.800 70.657,150.800 70.424 C 150.800 70.140,148.290 70.000,143.227 70.000 C 136.220 70.000,135.636 69.945,135.420 69.263 C 135.054 68.111,71.403 67.264,68.600 68.373 " stroke="none" fill="#04acec" fill-rule="evenodd"></path><path id="path2" d="M210.312 137.107 C 210.128 138.429,210.269 139.156,210.937 140.328 C 212.428 142.944,214.039 145.371,215.684 147.480 C 216.280 148.245,216.878 149.214,217.011 149.635 C 217.145 150.056,217.410 150.400,217.600 150.400 C 217.790 150.400,218.060 150.759,218.199 151.198 C 218.338 151.636,218.672 152.221,218.941 152.498 C 219.209 152.774,219.782 153.570,220.214 154.267 C 220.646 154.963,221.900 156.818,223.000 158.389 C 225.168 161.483,225.738 162.328,227.076 164.426 C 227.558 165.182,228.119 165.991,228.322 166.225 C 228.525 166.459,229.476 167.809,230.436 169.225 C 231.395 170.641,232.320 171.860,232.490 171.933 C 232.661 172.007,232.800 172.308,232.800 172.603 C 232.800 172.897,233.219 173.647,233.732 174.269 C 234.244 174.891,234.788 175.670,234.939 176.000 C 235.090 176.330,235.755 177.320,236.417 178.200 C 237.078 179.080,238.470 181.040,239.510 182.556 C 240.549 184.071,241.670 185.703,242.000 186.182 C 242.330 186.661,242.994 187.670,243.476 188.426 C 243.958 189.182,244.544 190.018,244.778 190.285 C 245.012 190.552,245.412 191.227,245.666 191.785 C 245.920 192.343,246.266 192.800,246.435 192.800 C 246.909 192.800,248.000 195.212,248.000 196.262 C 248.000 196.847,247.360 197.808,246.300 198.812 C 241.471 203.387,229.774 214.740,225.857 218.653 C 223.406 221.102,220.590 223.778,219.600 224.601 C 218.610 225.424,212.785 230.980,206.656 236.948 C 200.526 242.917,194.935 248.340,194.231 249.000 C 192.921 250.228,192.000 251.921,192.000 253.099 C 192.000 254.091,192.629 253.232,193.192 251.472 C 193.461 250.632,193.959 249.837,194.300 249.706 C 194.641 249.576,197.677 246.708,201.047 243.334 C 204.417 239.960,207.318 237.200,207.494 237.200 C 207.671 237.200,210.805 234.275,214.460 230.700 C 218.116 227.125,221.847 223.507,222.753 222.659 C 223.659 221.812,224.400 220.957,224.400 220.759 C 224.400 220.562,224.670 220.400,225.000 220.400 C 225.330 220.400,225.600 220.241,225.600 220.047 C 225.600 219.587,228.787 216.400,229.247 216.400 C 229.441 216.400,229.600 216.130,229.600 215.800 C 229.600 215.470,229.771 215.200,229.980 215.200 C 230.190 215.200,231.638 213.940,233.200 212.400 C 234.762 210.860,236.198 209.600,236.393 209.600 C 236.587 209.600,236.857 209.249,236.994 208.820 C 237.130 208.392,237.572 207.936,237.977 207.807 C 238.382 207.679,238.806 207.219,238.919 206.787 C 239.033 206.354,239.400 206.000,239.736 206.000 C 240.071 206.000,240.460 205.640,240.600 205.200 C 240.740 204.760,241.129 204.400,241.464 204.400 C 241.800 204.400,242.163 204.062,242.271 203.649 C 242.379 203.236,242.903 202.699,243.434 202.457 C 243.965 202.215,244.400 201.743,244.400 201.409 C 244.400 201.074,244.634 200.800,244.920 200.800 C 246.717 200.800,249.957 196.014,248.885 194.943 C 248.192 194.249,248.005 193.978,246.600 191.618 C 246.160 190.879,245.485 189.943,245.100 189.537 C 244.715 189.132,244.400 188.635,244.400 188.434 C 244.400 188.233,244.037 187.648,243.593 187.134 C 243.150 186.620,242.065 185.075,241.182 183.700 C 240.300 182.325,239.403 181.200,239.189 181.200 C 238.975 181.200,238.800 180.851,238.800 180.424 C 238.800 179.997,238.613 179.531,238.384 179.390 C 238.155 179.249,237.531 178.473,236.998 177.666 C 236.465 176.860,235.501 175.456,234.857 174.547 C 234.212 173.639,233.563 172.513,233.415 172.047 C 233.267 171.581,232.798 171.013,232.373 170.786 C 231.948 170.558,231.600 170.134,231.600 169.844 C 231.600 169.554,231.150 168.831,230.600 168.238 C 230.050 167.644,229.600 166.900,229.600 166.583 C 229.600 166.266,229.240 165.782,228.800 165.507 C 228.360 165.232,228.000 164.790,228.000 164.524 C 228.000 164.259,227.546 163.551,226.990 162.952 C 226.435 162.353,225.876 161.443,225.747 160.931 C 225.618 160.419,225.348 160.000,225.147 160.000 C 224.945 160.000,224.601 159.595,224.382 159.100 C 224.162 158.605,223.441 157.480,222.778 156.600 C 222.115 155.720,221.127 154.325,220.581 153.500 C 220.036 152.675,219.412 152.000,219.195 152.000 C 218.978 152.000,218.800 151.685,218.800 151.300 C 218.799 150.915,218.349 150.077,217.800 149.438 C 217.250 148.799,216.800 148.040,216.800 147.752 C 216.800 147.464,216.440 147.035,216.000 146.800 C 215.560 146.565,215.200 146.142,215.200 145.861 C 215.200 145.581,214.840 144.964,214.400 144.492 C 213.960 144.020,213.600 143.438,213.600 143.199 C 213.600 142.959,213.160 142.324,212.623 141.787 C 211.964 141.128,211.468 139.929,211.099 138.105 L 210.551 135.400 210.312 137.107 " stroke="none" fill="#042c3c" fill-rule="evenodd"></path><path id="path3" d="M209.828 137.350 C 209.551 139.197,210.924 142.185,213.404 145.132 C 213.952 145.783,214.400 146.487,214.400 146.696 C 214.400 146.905,214.755 147.398,215.190 147.791 C 215.624 148.184,216.100 148.884,216.247 149.347 C 216.474 150.064,218.519 152.980,219.229 153.600 C 219.355 153.710,219.577 154.122,219.722 154.515 C 219.868 154.908,220.720 156.168,221.616 157.315 C 222.512 158.462,224.549 161.380,226.143 163.800 C 230.124 169.846,231.118 171.316,231.628 171.919 C 231.870 172.205,232.277 172.840,232.534 173.332 C 232.790 173.823,233.232 174.489,233.515 174.812 C 233.798 175.136,234.741 176.480,235.611 177.800 C 236.481 179.120,238.006 181.370,238.999 182.800 C 239.992 184.230,241.597 186.570,242.565 188.000 C 243.534 189.430,244.973 191.499,245.763 192.599 C 247.803 195.437,247.741 196.945,245.500 198.966 C 243.289 200.961,232.419 211.457,225.800 217.988 C 222.940 220.811,219.790 223.789,218.800 224.607 C 217.810 225.424,211.812 231.157,205.470 237.347 C 199.129 243.536,193.667 248.753,193.333 248.941 C 192.587 249.359,191.593 251.648,191.619 252.887 C 191.632 253.484,191.852 253.177,192.256 252.000 C 192.595 251.010,193.467 249.660,194.192 249.000 C 194.918 248.340,200.526 242.917,206.656 236.948 C 212.785 230.980,218.610 225.424,219.600 224.601 C 220.590 223.778,223.406 221.102,225.857 218.653 C 229.774 214.740,241.471 203.387,246.300 198.812 C 247.360 197.808,248.000 196.847,248.000 196.262 C 248.000 195.212,246.909 192.800,246.435 192.800 C 246.266 192.800,245.920 192.343,245.666 191.785 C 245.412 191.227,245.012 190.552,244.778 190.285 C 244.544 190.018,243.958 189.182,243.476 188.426 C 242.994 187.670,242.330 186.661,242.000 186.182 C 241.670 185.703,240.549 184.071,239.510 182.556 C 238.470 181.040,237.078 179.080,236.417 178.200 C 235.755 177.320,235.090 176.330,234.939 176.000 C 234.788 175.670,234.244 174.891,233.732 174.269 C 233.219 173.647,232.800 172.897,232.800 172.603 C 232.800 172.308,232.661 172.007,232.490 171.933 C 232.320 171.860,231.395 170.641,230.436 169.225 C 229.476 167.809,228.525 166.459,228.322 166.225 C 228.119 165.991,227.558 165.182,227.076 164.426 C 225.738 162.328,225.168 161.483,223.000 158.389 C 221.900 156.818,220.646 154.963,220.214 154.267 C 219.782 153.570,219.209 152.774,218.941 152.498 C 218.672 152.221,218.338 151.636,218.199 151.198 C 218.060 150.759,217.790 150.400,217.600 150.400 C 217.410 150.400,217.145 150.056,217.011 149.635 C 216.878 149.214,216.280 148.245,215.684 147.480 C 214.039 145.371,212.428 142.944,210.937 140.328 C 210.293 139.198,210.129 138.407,210.290 137.207 C 210.408 136.323,210.412 135.600,210.298 135.600 C 210.184 135.600,209.973 136.387,209.828 137.350 " stroke="none" fill="#04547c" fill-rule="evenodd"></path><path id="path4" d="M127.700 68.294 C 128.745 68.376,130.455 68.376,131.500 68.294 C 132.545 68.212,131.690 68.144,129.600 68.144 C 127.510 68.144,126.655 68.212,127.700 68.294 M195.238 105.800 C 195.194 106.488,195.772 107.079,196.482 107.073 C 196.858 107.069,197.072 106.917,196.959 106.733 C 196.845 106.550,196.508 106.400,196.210 106.400 C 195.911 106.400,195.576 106.175,195.465 105.900 C 195.354 105.625,195.252 105.580,195.238 105.800 M202.018 118.034 C 202.264 118.493,202.544 118.789,202.642 118.692 C 202.922 118.412,202.354 117.200,201.943 117.200 C 201.739 117.200,201.773 117.575,202.018 118.034 M110.533 136.589 C 110.533 136.925,110.788 137.200,111.100 137.200 C 111.412 137.200,111.595 136.986,111.508 136.725 C 111.267 136.000,110.533 135.897,110.533 136.589 M209.300 137.483 C 208.600 138.990,208.674 139.762,209.600 140.600 C 210.040 140.998,210.400 141.625,210.400 141.992 C 210.400 142.360,210.850 143.083,211.400 143.600 C 211.950 144.117,212.400 144.777,212.400 145.066 C 212.400 145.356,212.760 145.818,213.200 146.093 C 213.640 146.368,214.000 146.726,214.000 146.888 C 214.000 147.384,216.803 151.600,217.132 151.600 C 217.301 151.600,217.667 152.230,217.946 153.000 C 218.224 153.770,218.603 154.400,218.787 154.400 C 218.971 154.400,219.310 154.940,219.540 155.600 C 219.770 156.260,220.152 156.800,220.389 156.800 C 220.626 156.800,221.000 157.205,221.220 157.700 C 221.629 158.618,223.126 160.892,224.074 162.034 C 224.363 162.382,224.870 163.132,225.200 163.699 C 226.328 165.639,228.951 169.399,229.676 170.116 C 230.074 170.509,230.400 171.063,230.400 171.346 C 230.400 171.629,230.850 172.283,231.400 172.800 C 231.950 173.317,232.400 173.880,232.400 174.052 C 232.400 174.565,234.410 177.558,236.528 180.200 C 237.058 180.860,237.610 181.781,237.755 182.247 C 237.901 182.713,238.376 183.416,238.810 183.809 C 239.245 184.202,239.600 184.765,239.600 185.059 C 239.600 185.353,239.960 185.818,240.400 186.093 C 240.840 186.368,241.200 186.794,241.200 187.041 C 241.200 187.459,242.788 189.741,244.135 191.261 C 244.457 191.624,244.834 192.277,244.972 192.713 C 245.111 193.149,245.578 193.914,246.012 194.414 C 247.209 195.793,245.592 199.600,243.809 199.600 C 243.690 199.600,241.211 201.985,238.302 204.900 C 235.393 207.815,232.380 210.708,231.607 211.328 C 230.833 211.949,227.230 215.335,223.600 218.852 C 219.970 222.370,216.443 225.754,215.762 226.373 C 215.081 226.992,214.412 227.792,214.275 228.149 C 214.137 228.507,213.749 228.800,213.413 228.800 C 213.076 228.800,212.800 228.959,212.800 229.153 C 212.800 229.613,209.613 232.800,209.153 232.800 C 208.959 232.800,208.800 233.076,208.800 233.413 C 208.800 233.749,208.493 234.143,208.119 234.287 C 207.744 234.430,206.300 235.685,204.911 237.074 C 203.522 238.463,202.221 239.600,202.020 239.600 C 201.818 239.600,201.543 239.951,201.406 240.380 C 201.270 240.808,200.808 241.270,200.380 241.406 C 199.951 241.543,199.600 241.840,199.600 242.066 C 199.600 242.563,197.267 244.800,196.749 244.800 C 196.548 244.800,196.178 245.250,195.927 245.800 C 195.677 246.350,195.263 246.800,195.008 246.800 C 194.753 246.800,194.153 247.250,193.675 247.800 C 193.197 248.350,192.667 248.800,192.497 248.800 C 191.860 248.800,190.809 251.955,191.144 252.861 C 191.429 253.630,191.511 253.519,191.746 252.048 C 191.902 251.070,192.408 249.974,192.934 249.473 C 193.438 248.993,199.059 243.536,205.425 237.347 C 211.791 231.157,217.810 225.424,218.800 224.607 C 219.790 223.789,222.940 220.811,225.800 217.988 C 232.419 211.457,243.289 200.961,245.500 198.966 C 247.741 196.945,247.803 195.437,245.763 192.599 C 244.973 191.499,243.534 189.430,242.565 188.000 C 241.597 186.570,239.992 184.230,238.999 182.800 C 238.006 181.370,236.481 179.120,235.611 177.800 C 234.741 176.480,233.798 175.136,233.515 174.812 C 233.232 174.489,232.790 173.823,232.534 173.332 C 232.277 172.840,231.870 172.205,231.628 171.919 C 231.118 171.316,230.124 169.846,226.143 163.800 C 224.549 161.380,222.512 158.462,221.616 157.315 C 220.720 156.168,219.868 154.908,219.722 154.515 C 219.577 154.122,219.355 153.710,219.229 153.600 C 218.519 152.980,216.474 150.064,216.247 149.347 C 216.100 148.884,215.624 148.184,215.190 147.791 C 214.755 147.398,214.400 146.905,214.400 146.696 C 214.400 146.487,213.952 145.783,213.404 145.132 C 211.157 142.461,209.526 139.121,209.787 137.726 C 210.089 136.121,209.962 136.058,209.300 137.483 M136.027 203.706 C 135.361 204.772,135.631 204.806,136.690 203.788 C 137.251 203.250,137.382 202.933,137.045 202.933 C 136.750 202.933,136.292 203.281,136.027 203.706 M116.554 221.376 C 116.344 221.924,116.219 221.956,115.950 221.534 C 115.713 221.159,115.610 221.295,115.606 221.989 L 115.600 222.978 116.478 222.100 C 116.961 221.617,117.235 221.101,117.087 220.954 C 116.940 220.806,116.700 220.996,116.554 221.376 M113.893 223.303 C 113.772 223.616,113.812 224.096,113.981 224.370 C 114.218 224.753,114.339 224.737,114.507 224.297 C 114.628 223.984,114.588 223.504,114.419 223.230 C 114.182 222.847,114.061 222.863,113.893 223.303 M110.233 227.057 C 109.883 227.969,110.080 227.992,110.900 227.133 C 111.433 226.575,111.467 226.400,111.043 226.400 C 110.736 226.400,110.372 226.696,110.233 227.057 M90.000 246.424 C 90.000 246.657,89.832 246.744,89.628 246.617 C 89.423 246.491,89.142 246.570,89.004 246.793 C 88.606 247.438,89.848 247.265,90.400 246.600 C 90.744 246.185,90.759 246.000,90.449 246.000 C 90.202 246.000,90.000 246.191,90.000 246.424 M65.371 268.706 C 64.818 269.085,64.268 270.529,64.802 270.198 C 65.177 269.967,66.153 268.393,65.914 268.406 C 65.851 268.409,65.607 268.544,65.371 268.706 M172.800 274.400 C 172.800 275.147,172.907 275.253,173.280 274.880 C 173.653 274.507,173.653 274.293,173.280 273.920 C 172.907 273.547,172.800 273.653,172.800 274.400 M41.034 291.300 L 40.408 292.600 41.204 291.656 C 41.642 291.136,42.000 290.551,42.000 290.356 C 42.000 289.672,41.654 290.010,41.034 291.300 M19.570 310.100 C 19.280 311.075,19.282 311.996,19.573 311.816 C 19.780 311.689,19.922 311.228,19.889 310.792 C 19.839 310.117,19.672 309.757,19.570 310.100 M18.028 312.374 C 17.714 312.573,17.414 313.021,17.363 313.370 C 17.312 313.719,17.437 313.901,17.642 313.774 C 17.846 313.648,17.909 313.377,17.783 313.172 C 17.656 312.968,17.833 312.800,18.176 312.800 C 18.519 312.800,18.800 312.620,18.800 312.400 C 18.800 311.916,18.754 311.915,18.028 312.374 " stroke="none" fill="#047ca4" fill-rule="evenodd"></path></g></svg>